<?xml version="1.0" standalone="no"?>
<svg viewBox="0 0 200 200" xmlns="http://www.w3.org/2000/svg">
  <path fill="#FF0066" d="M34.8,-53.9C46.8,-53.4,59.5,-47.5,61.7,-37.6C64,-27.8,55.8,-13.9,53.4,-1.4C51.1,11.2,54.5,22.3,49.5,27.3C44.5,32.4,30.9,31.3,21.3,37.7C11.6,44.2,5.8,58.2,0.2,57.8C-5.3,57.4,-10.7,42.6,-23.2,37.8C-35.8,33,-55.5,38.2,-63.3,33.6C-71.1,29,-66.9,14.5,-63.3,2.1C-59.7,-10.4,-56.9,-20.8,-49.9,-26.8C-42.9,-32.8,-31.9,-34.5,-22.9,-36.8C-13.9,-39,-7,-41.9,2.2,-45.7C11.4,-49.6,22.8,-54.4,34.8,-53.9Z" transform="translate(100 100)" />
</svg>
